<svg width="400" height="360" viewBox="0 0 400 360" fill="none" xmlns="http://www.w3.org/2000/svg">
<line x1="286.734" y1="165.9" x2="72.3061" y2="165.9" stroke="#B1BCA0" stroke-width="2" strokeLinecap="round"/>
<line x1="253.915" y1="88.7319" x2="105.125" y2="88.7319" stroke="#B1BCA0" stroke-width="2" strokeLinecap="round"/>
<line x1="244.158" y1="251.939" x2="114.882" y2="251.939" stroke="#B1BCA0" stroke-width="2" strokeLinecap="round"/>
<path d="M179.52 57.686C185.159 57.686 190.631 60.5273 195.712 65.8784C200.796 71.232 205.421 79.0329 209.326 88.7544C217.132 108.192 221.983 135.113 221.983 164.9C221.983 194.687 217.133 221.609 209.326 241.046C205.421 250.768 200.796 258.568 195.712 263.921C190.631 269.273 185.159 272.115 179.52 272.115C173.881 272.115 168.409 269.273 163.328 263.921C158.244 258.568 153.62 250.768 149.715 241.046C141.908 221.609 137.057 194.687 137.057 164.9C137.057 135.113 141.909 108.192 149.715 88.7544C153.62 79.0329 158.244 71.232 163.328 65.8784C168.409 60.5272 173.881 57.6861 179.52 57.686Z" stroke="#B1BCA0" stroke-width="2"/>
<path d="M71.3061 164.9C71.3061 105.135 119.755 56.686 179.52 56.686C239.285 56.686 287.734 105.135 287.734 164.9" stroke="#B1BCA0" stroke-width="2" strokeLinecap="round"/>
<path d="M287.734 164.9C287.734 224.665 239.285 273.114 179.52 273.114C119.755 273.114 71.3061 224.665 71.3061 164.9" stroke="#B1BCA0" stroke-width="2" strokeLinecap="round"/>
<path d="M179.52 57.686C201.921 57.6861 222.272 69.5951 237.055 88.9878C251.838 108.381 261.011 135.217 261.012 164.9C261.012 194.583 251.838 221.419 237.055 240.813C222.272 260.206 201.921 272.115 179.52 272.115C157.119 272.115 136.768 260.206 121.985 240.813C107.202 221.419 98.0291 194.583 98.0291 164.9C98.0292 135.217 107.202 108.381 121.985 88.9878C136.768 69.595 157.119 57.686 179.52 57.686Z" stroke="#B1BCA0" stroke-width="2"/>
<path d="M246.21 170.834C246.21 161.997 253.374 154.834 262.21 154.834H312C320.837 154.834 328 161.997 328 170.834V287.314C328 296.15 320.837 303.314 312 303.314H262.21C253.374 303.314 246.21 296.15 246.21 287.314V170.834Z" fill="#C9D0BC"/>
<path d="M287.734 284.181C291.435 284.181 294.284 286.912 294.284 290.102C294.284 293.291 291.435 296.023 287.734 296.023C284.033 296.023 281.185 293.291 281.184 290.102C281.184 286.912 284.033 284.181 287.734 284.181Z" fill="#B1BCA0" stroke="#B1BCA0" stroke-width="2"/>
</svg>
