<svg width="400" height="360" viewBox="0 0 400 360" fill="none" xmlns="http://www.w3.org/2000/svg">
<path d="M215.695 177.091C212.57 173.967 212.57 168.901 215.695 165.777L281.908 99.5635C285.032 96.4394 290.098 96.4394 293.222 99.5636L359.436 165.777C362.56 168.901 362.56 173.967 359.436 177.091L293.222 243.305C290.098 246.429 285.032 246.429 281.908 243.305L215.695 177.091Z" fill="#C9D0BC"/>
<path d="M64.0254 177.225C60.9012 174.101 60.9013 169.036 64.0254 165.912L130.239 99.6978C133.363 96.5736 138.429 96.5736 141.553 99.6978L207.767 165.912C210.891 169.036 210.891 174.101 207.767 177.225L141.553 243.439C138.429 246.563 133.363 246.563 130.239 243.439L64.0254 177.225Z" fill="#B1BCA0"/>
<line x1="325.16" y1="172.073" x2="316.524" y2="180.71" stroke="#B1BCA0" stroke-width="2" stroke-linecap="round"/>
<line x1="324.659" y1="171.568" x2="315.11" y2="162.019" stroke="#B1BCA0" stroke-width="2" stroke-linecap="round"/>
<path d="M325 171.5C325 171.776 324.776 172 324.5 172L179.5 172C179.224 172 179 171.776 179 171.5V171.5C179 171.224 179.224 171 179.5 171L324.5 171C324.776 171 325 171.224 325 171.5V171.5Z" fill="#9EA88D"/>
<path d="M136 71C191.224 71 236 115.991 236 171.5C236 227.009 191.224 272 136 272C80.7762 272 36 227.009 36 171.5C36 115.991 80.7762 71 136 71Z" stroke="#B1BCA0" stroke-width="2"/>
</svg>
