<svg width="419" height="175" viewBox="0 0 419 175" fill="none" xmlns="http://www.w3.org/2000/svg">
<rect width="418.667" height="174.5" fill="#EDEDEA"/>
<g clip-path="url(#clip0_109_22853)">
<path fill-rule="evenodd" clip-rule="evenodd" d="M332.833 78.1301C340.091 78.1301 343.277 82.692 343.277 89.9778C343.277 91.2689 343.227 92.7067 343.126 93.9468H328.653C328.952 96.1272 330.592 97.7642 334.224 97.7642C337.009 97.7642 339.745 97.4151 341.932 96.674L342.181 102.374C339.695 103.365 336.86 103.764 334.024 103.764C325.818 103.764 321.143 100.34 321.143 90.9708V90.821C321.143 82.6409 325.271 78.1301 332.833 78.1301ZM311.641 78.1299C314.177 78.1299 316.713 78.6256 318.454 79.4178L318.058 85.6661C316.564 84.8723 314.425 84.3766 312.686 84.3766C308.757 84.3766 306.667 86.5587 306.667 90.8702C306.667 95.6808 308.757 97.6142 312.735 97.6142C314.278 97.6142 316.117 97.3672 318.306 96.6228L318.553 102.622C316.515 103.466 313.73 103.764 311.491 103.764C306.618 103.764 303.484 102.473 301.495 99.7453C300.003 97.6636 299.108 94.7387 299.108 91.2688V90.9707C299.108 81.3529 305.176 78.1299 311.641 78.1299ZM258.904 78.1289C263.58 78.1289 266.961 79.4185 268.156 83.1371C268.506 84.1779 268.654 85.7655 268.654 87.1028V102.969H262.088L261.896 100.897C261.894 100.894 261.891 100.887 261.891 100.887H261.789C260.396 102.672 258.009 103.763 254.976 103.763C250.897 103.763 247.367 101.383 247.367 96.3748C247.367 90.3752 252.192 87.2527 260.598 87.2527H261.392V86.4095C261.392 84.5254 260.598 83.8799 258.009 83.8799C255.623 83.8799 252.141 84.7725 249.855 85.9138L248.908 80.2617C251.594 79.0726 255.723 78.1289 258.904 78.1289ZM212.697 78.9231V91.9137C212.697 93.6973 212.745 95.0362 212.945 95.7806C213.293 97.0701 214.438 97.8145 216.227 97.8145C218.018 97.8145 219.161 97.0701 219.51 95.7806C219.692 95.1038 219.748 93.9358 219.756 92.389L219.758 78.9231H227.02V91.0211C227.02 93.549 226.972 95.3837 226.871 96.077C226.224 101.68 222.743 103.763 216.227 103.763C209.712 103.763 206.233 101.68 205.585 96.077C205.492 95.427 205.441 93.7739 205.435 91.4868L205.435 78.9231H212.697ZM192.783 78.1286C195.318 78.1286 198.052 78.6737 200.192 79.4675L199.495 85.4671C198.005 84.5745 195.568 83.98 193.528 83.98C191.34 83.98 190.394 84.5745 190.394 85.6153C190.394 86.4091 191.24 86.9543 193.179 87.5504L195.318 88.145C200.39 89.5827 201.883 91.8142 201.883 95.7816C201.883 100.986 198.005 103.762 191.388 103.762C188.704 103.762 185.52 103.216 183.432 102.425L184.078 96.4238C185.968 97.3675 188.953 97.962 190.792 97.962C193.379 97.962 194.524 97.4153 194.524 96.2756C194.524 95.1854 193.977 94.7885 191.14 93.9947L189.151 93.4002C185.421 92.3099 182.984 89.6831 182.984 85.7158C182.984 81.1539 186.663 78.1286 192.783 78.1286ZM287.505 78.1293C289.892 78.1293 292.131 78.9725 293.376 80.2603C294.916 81.8479 295.562 84.2771 295.562 87.5V102.969H288.252V88.6397C288.252 87.1542 288.052 86.311 287.606 85.7165C287.109 85.0709 286.265 84.674 285.118 84.674C283.228 84.674 281.588 85.5666 280.443 86.8067V102.969H273.133V78.9231H279.647L279.896 81.2534H279.995C281.736 79.4188 284.124 78.1293 287.505 78.1293ZM245.971 78.4274L245.773 85.1203C242.439 85.1203 240.401 85.9635 238.812 87.5494V102.969H231.498V78.9231H237.964L238.412 82.2448H238.511C239.905 80.1121 242.439 78.4274 245.971 78.4274ZM171.395 78.1293C173.782 78.1293 176.021 78.9725 177.265 80.2603C178.806 81.8479 179.452 84.2771 179.452 87.5V102.969H172.142V88.6397C172.142 87.1542 171.942 86.311 171.494 85.7165C170.999 85.0709 170.153 84.674 169.008 84.674C167.118 84.674 165.478 85.5666 164.333 86.8067V102.969H157.023V78.9231H163.537L163.786 81.2534H163.885C165.627 79.4188 168.014 78.1293 171.395 78.1293ZM152.544 69.603V102.969H144.685V69.603H152.544ZM261.392 92.111H260.893C259.302 92.111 257.664 92.3103 256.567 92.9031C255.623 93.4005 254.926 94.3425 254.926 95.5316C254.926 97.1192 255.822 98.1106 257.664 98.1106C259.007 98.1106 260.396 97.465 261.392 96.5724V92.111ZM332.484 83.6834C329.649 83.6834 328.603 85.6662 328.603 88.4923V88.8381H336.014V88.293C336.014 85.9133 335.418 83.6834 332.484 83.6834Z" fill="#293021"/>
<path fill-rule="evenodd" clip-rule="evenodd" d="M129.31 86.7885C129.31 108.396 111.741 125.909 90.0686 125.909C68.3943 125.909 50.8252 108.396 50.8252 86.7885C50.8252 65.1813 68.3943 47.6667 90.0686 47.6667C111.741 47.6667 129.31 65.1813 129.31 86.7885Z" fill="#EDEDEA"/>
<path fill-rule="evenodd" clip-rule="evenodd" d="M90.0678 45.0913C67.0042 45.0913 48.2407 63.7966 48.2407 86.7888C48.2407 109.779 67.0042 128.486 90.0678 128.486C113.131 128.486 131.895 109.779 131.895 86.7888C131.895 63.7966 113.131 45.0913 90.0678 45.0913ZM90.0678 47.667C111.741 47.667 129.31 65.1816 129.31 86.7888C129.31 108.394 111.741 125.909 90.0678 125.909C68.3935 125.909 50.8245 108.394 50.8245 86.7888C50.8245 65.1816 68.3935 47.667 90.0678 47.667Z" fill="#293021"/>
<path fill-rule="evenodd" clip-rule="evenodd" d="M101.041 91.6606L105.964 80.8192V91.6606H101.041ZM76.1457 91.6606L81.0687 80.8192V91.6606H76.1457ZM102.865 69.6023L89.6839 96.3674V69.6023H77.9695L61.5354 102.968H71.0113L72.5427 99.5953H81.0687V102.968H95.907L97.4384 99.5953H105.964V102.968H114.578V69.6023H102.865Z" fill="#293021"/>
</g>
<defs>
<clipPath id="clip0_109_22853">
<rect width="322.667" height="112.113" fill="white" transform="translate(48 31.1936)"/>
</clipPath>
</defs>
</svg>
