<svg width="419" height="175" viewBox="0 0 419 175" fill="none" xmlns="http://www.w3.org/2000/svg">
<g clip-path="url(#clip0_109_22855)">
<mask id="mask0_109_22855" style="mask-type:luminance" maskUnits="userSpaceOnUse" x="79" y="23" width="261" height="129">
<path d="M339.352 23.25H79.3145V151.25H339.352V23.25Z" fill="white"/>
</mask>
<g mask="url(#mask0_109_22855)">
<path d="M285.216 106.62L284.986 106.728L284.371 127.474L289.379 125.149L289.374 122.487L294.429 120.14L296.486 121.848L301.494 119.523L285.216 106.62ZM289.255 118.732C289.219 117.571 289.134 115.76 288.994 115.097L289.04 115.075C289.458 115.61 290.788 116.842 291.654 117.618L289.255 118.732Z" fill="currentColor"/>
<path d="M263.499 114.529C257.973 116.118 255.299 121.356 256.749 126.386C258.221 131.49 263.252 134.433 268.778 132.844C274.329 131.248 277.024 126.083 275.552 120.98C274.102 115.949 269.05 112.933 263.499 114.529ZM267.434 128.18C264.867 128.918 262.567 127.278 261.884 124.91C261.216 122.59 262.276 119.931 264.844 119.194C267.435 118.448 269.725 120.143 270.392 122.463C271.076 124.832 270.026 127.434 267.434 128.18Z" fill="currentColor"/>
<path d="M249.474 125.028C248.816 120.756 245.35 119.153 240.895 119.837L234.077 120.884L236.861 138.978L241.994 138.191L241.128 132.56L242.613 132.333L246.146 137.552L251.606 136.714L247.087 130.771C248.928 129.511 249.868 127.591 249.474 125.028ZM242.45 128.088L240.487 128.389L239.89 124.518L241.854 124.217C242.91 124.055 243.944 124.411 244.164 125.844C244.392 127.326 243.506 127.925 242.45 128.088Z" fill="currentColor"/>
<path d="M218.723 121.747L210.247 140.696L215.763 140.452L216.774 137.99L222.341 137.742L223.593 140.103L229.109 139.857L218.978 121.737L218.723 121.747ZM219.29 131.009C219.471 131.662 220.233 133.307 220.738 134.353L218.094 134.472C218.504 133.384 219.116 131.678 219.239 131.011L219.29 131.009Z" fill="currentColor"/>
<path d="M190.353 139.805L202.979 140.519L203.234 136.054L195.917 135.639L196.071 132.925L202.015 133.262L202.253 129.074L196.308 128.738L196.446 126.302L203.383 126.694L203.635 122.229L191.39 121.536L190.353 139.805Z" fill="currentColor"/>
<path d="M169.534 118.524L168.83 122.942L173.454 123.676L171.28 137.331L176.557 138.169L178.732 124.515L183.356 125.25L184.059 120.831L169.534 118.524Z" fill="currentColor"/>
<path d="M155.297 114.537C149.767 112.948 144.713 115.967 143.261 121.001C141.791 126.109 144.488 131.275 150.018 132.864C155.572 134.459 160.607 131.514 162.077 126.408C163.527 121.374 160.851 116.132 155.297 114.537ZM156.914 124.924C156.232 127.294 153.956 128.941 151.362 128.197C148.793 127.458 147.717 124.848 148.4 122.477C149.068 120.157 151.383 118.467 153.952 119.205C156.545 119.95 157.583 122.602 156.914 124.924Z" fill="currentColor"/>
<path d="M133.592 106.656L117.315 119.557L122.322 121.882L124.357 120.164L129.41 122.512L129.429 125.183L134.437 127.508L133.823 106.763L133.592 106.656ZM129.554 118.766L127.155 117.652C128.02 116.877 129.351 115.646 129.768 115.111L129.815 115.131C129.674 115.795 129.59 117.606 129.554 118.766Z" fill="currentColor"/>
<mask id="mask1_109_22855" style="mask-type:luminance" maskUnits="userSpaceOnUse" x="88" y="31" width="241" height="51">
<path d="M88.0205 31.4822V81.5688H328.844V31.4822H88.0205Z" fill="white"/>
</mask>
<g mask="url(#mask1_109_22855)">
<path d="M130.267 57.1238C128.803 56.4594 127.206 56.1269 124.146 55.8612V55.5954C128.138 54.9972 129.602 54.4657 131.066 53.2699C133.328 51.4751 134.459 48.4845 134.459 44.4978C134.459 39.9789 132.995 36.9222 130.001 35.3271C128.337 34.397 124.744 33.7319 121.484 33.7319H90.8093V77.8583H122.748C124.811 77.8583 126.873 77.5257 128.537 76.9282C132.529 75.4659 134.924 71.2788 134.924 65.763C134.924 61.6427 133.261 58.5193 130.267 57.1238ZM107.644 44.9625H114.098C116.893 44.9625 118.157 46.0261 118.157 48.3517C118.157 49.4821 117.691 50.6779 117.026 51.2094C116.294 51.8076 115.695 51.9405 113.366 51.9405H107.644V44.9625ZM112.966 67.8235H107.644V60.9123H114.697C117.159 60.9123 118.29 61.9752 118.29 64.1686C118.29 66.9595 117.092 67.8235 112.966 67.8235Z" fill="currentColor"/>
<path d="M319.687 66.76C314.896 66.76 311.768 69.0863 311.768 72.6751C311.768 76.3961 314.762 78.7224 319.753 78.7224C324.611 78.7224 327.738 76.3961 327.738 72.7412C327.738 69.0195 324.677 66.76 319.687 66.76Z" fill="currentColor"/>
<path d="M314.841 40.893C312.563 40.3782 310.705 40.1111 309.441 40.1111C303.652 40.1111 301.057 42.6363 300.259 49.0829H299.86V40.6433H284.888V77.8583H301.19V66.76C301.19 66.0956 301.323 64.8991 301.523 63.3047C301.789 61.1113 301.922 60.7788 302.521 59.9155C303.785 58.2536 306.247 57.3235 309.374 57.3235C310.505 57.3235 312.206 57.4557 314.812 57.88L314.841 40.893Z" fill="currentColor"/>
<path d="M277.833 42.8358C274.706 40.3767 270.181 39.3137 262.595 39.3137C255.343 39.3137 251.018 40.3767 247.89 42.8358C244.297 45.6935 242.567 50.6778 242.567 58.0545C242.567 72.6081 248.423 78.7222 262.396 78.7222C267.786 78.7222 271.912 78.1907 279.697 76.462L281.759 66.6269C276.169 68.0892 271.512 68.7535 267.653 68.7535C263.594 68.7535 260.599 67.8895 259.601 66.4941C259.069 65.6969 258.87 64.9657 258.803 63.5703H282.491C282.757 61.4437 282.823 60.3139 282.823 58.1206C282.823 49.9467 281.426 45.6935 277.833 42.8358ZM258.204 55.2628C258.337 51.3422 259.934 49.747 263.86 49.747C268.251 49.747 269.715 51.0764 269.715 55.2628H258.204Z" fill="currentColor"/>
<path d="M230.32 33.2659H221.271C216.268 39.1712 215.247 40.1458 209.256 45.1371V40.6425H197.678V33.2659H188.629C183.505 39.3131 182.574 40.1778 176.186 45.494V53.3353H181.243V68.6875C181.243 72.9407 181.775 74.6019 183.771 76.4621C185.767 78.323 189.294 79.187 194.817 79.187C198.875 79.187 202.536 78.7884 207.725 77.8583L208.125 68.4879C207.636 68.5762 206.949 68.6869 206.062 68.8204C204.332 69.1522 203.999 69.2183 202.469 69.2183C198.609 69.2183 197.678 68.355 197.678 64.833V53.3353H213.885V68.6875C213.885 72.9407 214.417 74.6019 216.413 76.4621C218.409 78.323 221.936 79.187 227.459 79.187C231.517 79.187 235.178 78.7884 240.367 77.8583L240.766 68.4879C240.278 68.5762 239.591 68.6869 238.704 68.8204C236.974 69.1522 236.641 69.2183 235.111 69.2183C231.251 69.2183 230.32 68.355 230.32 64.833V53.3353H241.898V40.6425H230.32V33.2659Z" fill="currentColor"/>
<path d="M171.059 42.8358C167.932 40.3767 163.407 39.3137 155.822 39.3137C148.569 39.3137 144.244 40.3767 141.117 42.8358C137.523 45.6935 135.793 50.6778 135.793 58.0545C135.793 72.6081 141.649 78.7222 155.622 78.7222C161.012 78.7222 165.138 78.1907 172.922 76.462L174.985 66.6269C169.395 68.0892 164.738 68.7535 160.879 68.7535C156.82 68.7535 153.825 67.8895 152.827 66.4941C152.295 65.6969 152.096 64.9657 152.029 63.5703H175.716C175.983 61.4437 176.049 60.3139 176.049 58.1206C176.049 49.9467 174.653 45.6935 171.059 42.8358ZM151.43 55.2628C151.563 51.3422 153.16 49.747 157.086 49.747C161.477 49.747 162.941 51.0764 162.941 55.2628H151.43Z" fill="currentColor"/>
</g>
</g>
</g>
<defs>
<clipPath id="clip0_109_22855">
<rect width="260.038" height="128" fill="white" transform="translate(79.3145 23.25)"/>
</clipPath>
</defs>
</svg>
