<svg width="419" height="175" viewBox="0 0 419 175" fill="none" xmlns="http://www.w3.org/2000/svg">
<g clip-path="url(#clip0_109_22857)">
<path d="M119.322 79.0718H120.12V95.3938H119.322V79.0718Z" fill="currentColor" stroke="currentColor" stroke-width="2" stroke-linejoin="bevel"/>
<path d="M140.519 79.0718H141.317V86.8069H152.527V79.0718H153.325V95.3938H152.527V87.5206H141.317V95.3823H140.519V79.0718Z" fill="currentColor" stroke="currentColor" stroke-width="2" stroke-linejoin="bevel"/>
<path d="M170.188 78.9565H170.939L178.717 95.3937H177.85L175.62 90.6398H165.484L163.241 95.3937H162.421L170.188 78.9565ZM175.273 89.9146L170.511 79.8889L165.888 89.9146H175.273Z" fill="currentColor" stroke="currentColor" stroke-width="2" stroke-linejoin="bevel"/>
<path d="M190.691 79.7969H184.912V79.0718H197.394V79.7969H191.535V95.3938H190.749L190.691 79.7969Z" fill="currentColor" stroke="currentColor" stroke-width="2" stroke-linejoin="bevel"/>
<path d="M205.889 79.0718H217.447V79.7969H206.698V86.8069H216.418V87.5206H206.687V94.6571H217.551V95.3823H205.889V79.0718Z" fill="currentColor" stroke="currentColor" stroke-width="2" stroke-linejoin="bevel"/>
<path d="M237.927 79.0718H238.701V95.3938H237.904L237.927 79.0718Z" fill="currentColor" stroke="currentColor" stroke-width="2" stroke-linejoin="bevel"/>
<path d="M250.409 79.0717H257.193C258.876 78.9746 260.532 79.527 261.817 80.6142C262.587 81.4372 263.002 82.5283 262.972 83.653C262.972 86.404 260.834 88.0155 257.818 88.2572L263.273 95.3247H262.267L256.928 88.3493H251.149V95.3247H250.351L250.409 79.0717ZM256.974 87.6932C260.337 87.6932 262.267 86.0587 262.267 83.7566C262.267 81.3048 260.36 79.843 257.136 79.843H251.207V87.7392L256.974 87.6932Z" fill="currentColor" stroke="currentColor" stroke-width="2" stroke-linejoin="bevel"/>
<path d="M297.46 79.0718H298.177L310.174 94.0356V79.0718H310.948V95.3938H310.359L298.223 80.3034V95.3938H297.46V79.0718Z" fill="currentColor" stroke="currentColor" stroke-width="2" stroke-linejoin="bevel"/>
<path d="M321.697 79.0718H322.494V95.3938H321.697V79.0718Z" fill="currentColor" stroke="currentColor" stroke-width="2" stroke-linejoin="bevel"/>
<path d="M333.243 79.0718H333.971L345.956 94.0356V79.0718H346.731V95.3938H346.107L334.017 80.3034V95.3938H333.243V79.0718Z" fill="currentColor" stroke="currentColor" stroke-width="2" stroke-linejoin="bevel"/>
<path d="M356.127 87.2788C356.087 86.1914 356.266 85.107 356.653 84.0895C357.041 83.0721 357.629 82.1422 358.383 81.3547C359.137 80.5673 360.042 79.9382 361.044 79.5046C362.046 79.071 363.125 78.8416 364.217 78.8301C366.347 78.7714 368.418 79.5343 369.996 80.9595L369.476 81.5581C368.047 80.2093 366.152 79.4593 364.183 79.4631C363.197 79.4852 362.225 79.7031 361.325 80.1041C360.424 80.5051 359.613 81.0811 358.939 81.7983C358.266 82.5156 357.742 83.3596 357.4 84.281C357.058 85.2023 356.904 86.1824 356.948 87.1637C356.948 91.3766 359.687 94.8758 364.298 94.8758C366.353 94.8413 368.333 94.1013 369.904 92.7809V87.8544H364.125V87.0947H370.724V93.1723C368.981 94.7693 366.702 95.6601 364.333 95.6701C359.121 95.6701 356.127 91.8485 356.127 87.2788Z" fill="currentColor" stroke="currentColor" stroke-width="2" stroke-linejoin="bevel"/>
<path d="M84.0829 79.0716H82.3493L86.5563 73.7076C86.5936 73.6666 86.6221 73.6184 86.6398 73.5659C86.6576 73.5134 86.6644 73.4579 86.6596 73.4027C86.6549 73.3475 86.6388 73.2939 86.6123 73.2452C86.5858 73.1965 86.5495 73.1538 86.5057 73.1197C86.4619 73.0856 86.4115 73.0608 86.3577 73.047C86.3038 73.0331 86.2477 73.0305 86.1928 73.0392C86.1379 73.0479 86.0854 73.0679 86.0385 73.0977C85.9917 73.1276 85.9516 73.1667 85.9206 73.2127L81.2975 79.1061H68.5148C68.4616 79.1061 68.409 79.1165 68.36 79.1368C68.3109 79.157 68.2663 79.1867 68.2287 79.2241C68.1912 79.2615 68.1614 79.3059 68.141 79.3548C68.1207 79.4037 68.1102 79.4561 68.1102 79.509C68.1102 79.5619 68.1207 79.6143 68.141 79.6632C68.1614 79.712 68.1912 79.7565 68.2287 79.7939C68.2663 79.8313 68.3109 79.8609 68.36 79.8812C68.409 79.9014 68.4616 79.9119 68.5148 79.9119H80.7081L75.4494 86.6571H73.1378C70.2435 86.5097 67.4049 87.4878 65.2208 89.3851C63.6795 90.8651 62.7901 92.8933 62.7475 95.0253C62.7459 95.0786 62.7553 95.1317 62.775 95.1813C62.7948 95.2309 62.8245 95.276 62.8624 95.3137C62.9003 95.3514 62.9455 95.381 62.9953 95.4007C63.0451 95.4204 63.0985 95.4297 63.152 95.4281H68.665L64.458 100.838C64.3924 100.922 64.3629 101.029 64.3758 101.134C64.3888 101.24 64.4433 101.336 64.5274 101.402C64.5965 101.456 64.6823 101.484 64.7701 101.483C64.832 101.485 64.8937 101.473 64.9499 101.447C65.0062 101.421 65.0554 101.382 65.0937 101.333L69.7168 95.4281H87.4924C87.5521 95.4276 87.611 95.414 87.6648 95.3882C87.7185 95.3623 87.7659 95.325 87.8035 95.2788C87.841 95.2326 87.8679 95.1786 87.882 95.1209C87.8962 95.0631 87.8973 95.003 87.8854 94.9447L84.4759 79.3824C84.4551 79.2941 84.4049 79.2154 84.3336 79.159C84.2623 79.1026 84.174 79.0718 84.0829 79.0716ZM63.5219 94.5879C63.753 90.962 66.758 87.4283 73.0916 87.4283H74.8252L69.2429 94.5879H63.5219ZM85.4121 87.4283L86.9955 94.5879H70.2715L75.8423 87.4283H85.4121ZM76.4664 86.6225L81.7252 79.8773H83.7593L85.2387 86.6225H76.4664Z" fill="currentColor" stroke="currentColor" stroke-width="2" stroke-linejoin="bevel"/>
<path d="M75.4611 59.895C70.027 59.895 64.715 61.5 60.197 64.5069C55.6789 67.5139 52.1576 71.7877 50.0787 76.7879C47.9997 81.7881 47.4563 87.29 48.5173 92.5978C49.5782 97.9055 52.1959 102.781 56.0392 106.607C59.8824 110.433 64.7786 113.038 70.1085 114.092C75.4385 115.146 80.9626 114.603 85.9824 112.53C91.0021 110.458 95.292 106.949 98.3093 102.448C101.327 97.9472 102.936 92.6561 102.934 87.2442C102.924 79.9916 100.027 73.0388 94.8763 67.9114C89.7258 62.7841 82.7434 59.9011 75.4611 59.895ZM75.4611 113.799C70.1875 113.799 65.0324 112.242 60.6476 109.324C56.2628 106.406 52.8453 102.259 50.8272 97.4063C48.8091 92.5541 48.2811 87.2147 49.3099 82.0636C50.3387 76.9124 52.8782 72.1808 56.6071 68.467C60.3361 64.7532 65.0871 62.2241 70.2593 61.1995C75.4315 60.1749 80.7927 60.7007 85.6648 62.7106C90.5369 64.7205 94.7012 68.1241 97.631 72.4911C100.561 76.858 102.125 81.9921 102.125 87.2442C102.115 94.2842 99.3033 101.033 94.3049 106.011C89.3065 110.989 82.5299 113.79 75.4611 113.799Z" fill="currentColor" stroke="currentColor" stroke-width="2" stroke-linejoin="bevel"/>
<path d="M279.916 78.7839C278.8 78.7635 277.692 78.9677 276.658 79.3842C275.623 79.8007 274.684 80.4209 273.896 81.2077C273.108 81.9946 272.488 82.9317 272.073 83.9631C271.657 84.9944 271.455 86.0987 271.479 87.2096C271.437 88.3385 271.624 89.4642 272.029 90.5194C272.434 91.5747 273.048 92.5378 273.835 93.3512C274.622 94.1647 275.566 94.8117 276.61 95.2536C277.653 95.6955 278.776 95.9233 279.91 95.9233C281.044 95.9233 282.167 95.6955 283.211 95.2536C284.255 94.8117 285.198 94.1647 285.986 93.3512C286.773 92.5378 287.387 91.5747 287.792 90.5194C288.197 89.4642 288.384 88.3385 288.342 87.2096C288.367 86.0992 288.166 84.9952 287.752 83.9639C287.338 82.9326 286.719 81.9953 285.932 81.2084C285.145 80.4214 284.206 79.8009 283.173 79.3843C282.139 78.9676 281.031 78.7634 279.916 78.7839ZM272.323 87.2326C272.304 85.8344 272.675 84.4585 273.394 83.2573C274.112 82.056 275.151 81.0763 276.394 80.4268C277.638 79.7773 279.037 79.4832 280.438 79.5772C281.839 79.6712 283.186 80.1496 284.331 80.9594L274.865 93.0455C274.058 92.3068 273.414 91.4081 272.977 90.407C272.539 89.4059 272.316 88.3246 272.323 87.2326ZM287.498 87.2326C287.512 88.6292 287.139 90.0025 286.419 91.2012C285.699 92.3999 284.662 93.3775 283.42 94.0263C282.178 94.675 280.78 94.9697 279.381 94.8779C277.982 94.7861 276.635 94.3113 275.489 93.5059L284.932 81.4198C285.74 82.1585 286.383 83.0572 286.821 84.0583C287.259 85.0594 287.481 86.1407 287.475 87.2326H287.498Z" fill="currentColor" stroke="currentColor" stroke-width="2" stroke-linejoin="bevel"/>
</g>
<defs>
<clipPath id="clip0_109_22857">
<rect width="322.667" height="54.7099" fill="white" transform="translate(48 59.895)"/>
</clipPath>
</defs>
</svg>
