<svg width="419" height="175" viewBox="0 0 419 175" fill="none" xmlns="http://www.w3.org/2000/svg">
<g clip-path="url(#clip0_109_22858)">
<path fill-rule="evenodd" clip-rule="evenodd" d="M209.365 35.531C180.611 35.531 157.217 58.8562 157.217 87.5271C157.217 116.196 180.611 139.523 209.365 139.523C238.119 139.523 261.513 116.196 261.513 87.5271C261.513 58.8562 238.119 35.531 209.365 35.531ZM209.365 38.7429C236.385 38.7429 258.289 60.5833 258.289 87.5271C258.289 114.469 236.385 136.309 209.365 136.309C182.343 136.309 160.439 114.469 160.439 87.5271C160.439 60.5833 182.343 38.7429 209.365 38.7429Z" fill="currentColor"/>
<path fill-rule="evenodd" clip-rule="evenodd" d="M223.046 93.6024L229.184 80.0833V93.6024H223.046ZM192.008 93.6024L198.145 80.0833V93.6024H192.008ZM225.32 66.0959L208.886 99.4717V66.0959H194.282L173.792 107.703H185.606L187.516 103.497H198.145V107.703H216.645L218.554 103.497H229.184V107.703H239.923V66.0959H225.32Z" fill="currentColor"/>
</g>
<defs>
<clipPath id="clip0_109_22858">
<rect width="104.832" height="104" fill="white" transform="translate(156.917 35.25)"/>
</clipPath>
</defs>
</svg>
