<svg width="419" height="175" viewBox="0 0 419 175" fill="none" xmlns="http://www.w3.org/2000/svg">
<rect width="418.667" height="174.5" fill="#EDEDEA"/>
<g clip-path="url(#clip0_109_22854)">
<path d="M140.458 66.1108H137.342V104.264H140.458V66.1108Z" fill="#293021"/>
<path d="M133.882 90.7033C133.882 99.2212 129.233 104.881 122.257 104.881C115.179 104.881 110.477 99.277 110.477 90.7033C110.477 82.0171 115.127 76.469 122.309 76.469C129.387 76.469 133.882 82.0171 133.882 90.7033ZM113.868 90.7584C113.868 97.3156 117.349 102.222 122.207 102.222C127.063 102.222 130.493 97.3156 130.493 90.7033C130.493 84.0336 127.113 79.1264 122.257 79.1264C117.194 79.1264 113.868 83.9226 113.868 90.7584Z" fill="#293021"/>
<path d="M199.929 90.7033C199.929 99.2212 195.28 104.881 188.303 104.881C181.225 104.881 176.523 99.277 176.523 90.7033C176.523 82.0171 181.174 76.469 188.355 76.469C195.434 76.469 199.929 82.0171 199.929 90.7033ZM179.914 90.7584C179.914 97.3156 183.395 102.222 188.253 102.222C193.108 102.222 196.539 97.3156 196.539 90.7033C196.539 84.0336 193.16 79.1264 188.303 79.1264C183.238 79.1264 179.914 83.9226 179.914 90.7584Z" fill="#293021"/>
<path d="M108.146 90.7033C108.146 99.2212 103.496 104.881 96.522 104.881C89.4431 104.881 84.7412 99.277 84.7412 90.7033C84.7412 82.0171 89.3911 76.469 96.5726 76.469C103.651 76.469 108.146 82.0171 108.146 90.7033ZM88.1328 90.7584C88.1328 97.3156 91.6127 102.222 96.4701 102.222C101.327 102.222 104.757 97.3156 104.757 90.7033C104.757 84.0336 101.377 79.1264 96.522 79.1264C91.4575 79.1264 88.1328 83.9226 88.1328 90.7584Z" fill="#293021"/>
<path d="M234.269 77.1409V78.4307C234.214 79.6081 234.269 80.8403 234.11 82.017C235.861 78.6548 238.994 76.7485 242.66 76.7485C248.659 76.7485 250.812 81.1761 251.128 86.8362C251.236 88.1268 251.29 90.3123 251.29 91.5989V104.264H248.182V91.5989C248.182 90.0309 248.126 87.3788 248.025 86.0908C247.652 81.7724 245.528 79.4208 242.078 79.4208C239.258 79.4208 236.658 81.2691 235.275 84.1838C234.748 85.2495 234.533 86.3134 234.375 88.6124C234.32 89.4526 234.269 91.1525 234.269 91.5989V104.264H231.178V66.1108H234.269V77.1409Z" fill="#293021"/>
<path d="M268.155 80.3172C266.063 79.5986 265.074 79.3894 262.989 79.306C259.886 79.1791 257.669 81.1762 257.669 83.4741C257.669 89.0773 270.387 88.4612 270.387 97.0923C270.387 101.631 266.609 104.768 261.076 104.768C258.745 104.768 256.781 104.378 254.45 103.423L254.673 100.352C257.002 101.639 258.797 102.116 260.867 102.116C264.388 102.116 266.972 99.7829 266.972 97.0923C266.972 90.5909 254.555 91.7114 254.555 83.5296C254.555 79.3279 257.869 76.5553 263.039 76.6373C265.035 76.6694 265.973 76.7249 268.4 77.5655L268.155 80.3172Z" fill="#293021"/>
<path d="M161.324 77.0405C161.324 77.0405 165.109 92.4388 165.897 96.0449C166.282 97.802 166.845 100.378 166.845 100.378C166.845 100.378 167.434 97.802 167.905 96.0491C168.881 92.4193 173.201 77.0409 173.201 77.0409H176.542L168.659 104.238H164.989C164.989 104.238 160.843 86.2718 160.357 84.0622C160.113 82.953 159.775 81.2634 159.775 81.2634C159.775 81.2634 159.437 82.953 159.191 84.0622C158.705 86.2718 154.56 104.238 154.56 104.238H150.889L143.007 77.0409H146.348C146.348 77.0409 150.668 92.4197 151.644 96.0491C152.115 97.802 152.703 100.378 152.703 100.378C152.703 100.378 153.267 97.802 153.65 96.0449C154.44 92.4388 158.224 77.0405 158.224 77.0405H161.324Z" fill="#293021"/>
<path d="M67.9711 72.9258C67.9711 72.9258 73.0568 91.4593 73.9143 94.6596C74.3947 96.4485 75.1465 99.6015 75.1465 99.6015C75.1465 99.6015 75.8107 96.4439 76.2561 94.643C77.0436 91.4681 81.8035 72.9258 81.8035 72.9258H85.0395L76.9733 104.257H73.4364C73.4364 104.257 67.5148 81.5869 67.2306 80.4275C66.9471 79.2681 66.5201 77.0331 66.5201 77.0331C66.5201 77.0331 66.0938 79.2677 65.8089 80.4275C65.5265 81.5869 59.6041 104.257 59.6041 104.257H56.0666L48 72.9258H51.2371C51.2371 72.9258 55.9962 91.4681 56.7823 94.643C57.2288 96.4443 57.8929 99.6015 57.8929 99.6015C57.8929 99.6015 58.6462 96.4482 59.1255 94.6596C59.9834 91.4589 65.0698 72.9258 65.0698 72.9258H67.9711Z" fill="#293021"/>
<path d="M203.285 104.264V77.0881H205.93V83.3018C205.93 83.3018 207.404 77.5211 215.617 77.0959C216.76 77.0362 218.249 77.0715 218.249 77.0715V70.2361L221.337 69.0315V77.0779H227.682V79.8332H221.337C221.337 79.8332 221.337 93.5525 221.337 96.3526C221.337 100.251 222.555 101.607 225.214 101.607C226.688 101.607 227.902 101.061 227.902 101.061L228.231 103.746C228.231 103.746 226.694 104.25 225.067 104.25C224.23 104.25 221.753 104.368 220.058 102.655C218.925 101.508 218.249 99.6509 218.249 96.1985C218.249 93.0438 218.254 79.7226 218.25 79.7226C217.175 79.7144 214.861 79.5865 212.986 80.0764C210.478 80.7338 206.377 83.3393 206.377 89.8407C206.377 92.199 206.377 104.264 206.377 104.264H203.285Z" fill="#293021"/>
<path d="M344.431 113.445C342.529 113.445 340.731 113.21 339.037 112.778C336.242 116.622 332.637 119.94 328.458 122.22C332.15 124.231 336.293 125.423 340.709 125.423C357.639 125.423 369.165 107.809 370.53 92.8411C369.992 94.8219 366.505 113.445 344.431 113.445Z" fill="#293021"/>
<path d="M348.643 66.6484C340.499 66.6484 336.579 71.3754 336.579 71.3754C344.985 72.2266 355.313 78.1571 355.313 90.4423C355.313 102.373 347.495 107.793 341.104 109.605C340.478 110.693 339.787 111.752 339.037 112.778C340.731 113.21 342.528 113.445 344.431 113.445C366.504 113.445 369.992 94.8218 370.53 92.841C370.624 91.8364 370.666 90.852 370.666 89.8782C370.666 73.0848 357.845 66.6484 348.643 66.6484Z" fill="#293021"/>
<path d="M312.489 113.445C317.175 113.445 321.27 112.014 324.546 109.72C323.423 110.056 322.044 110.331 320.654 110.331C314.423 110.331 301.607 105.718 301.607 90.4423C301.607 78.1567 311.935 72.2266 320.342 71.3754C320.342 71.3754 316.421 66.6484 308.278 66.6484C299.076 66.6484 286.254 73.0848 286.254 89.8782C286.254 90.852 286.296 91.8364 286.39 92.841C286.928 94.8384 290.348 113.445 312.489 113.445Z" fill="#293021"/>
<path d="M320.654 110.332C322.042 110.332 323.424 110.056 324.546 109.72C324.546 109.72 324.547 109.72 324.548 109.72C326.058 108.665 327.391 107.418 328.529 106.055C328.529 106.054 328.529 106.054 328.529 106.054C327.751 105.078 324.141 100.193 324.141 93.6573C324.141 87.5451 327.417 84.9361 328.498 84.2398C328.498 84.2387 328.497 84.238 328.495 84.2369C326.247 82.5611 323.713 82.0762 322.272 82.0762C319.95 82.0762 313.676 83.6675 312.195 90.8313C312.195 90.8288 312.197 90.8263 312.197 90.8246C312.195 90.8313 312.193 90.8391 312.192 90.8458C312.139 91.1335 312.091 91.4188 312.05 91.704C311.9 92.8987 311.814 94.2204 311.814 95.6675C311.814 101.415 314.26 106.554 316.172 109.703C317.831 110.139 319.383 110.332 320.654 110.332Z" fill="#293021"/>
<path d="M328.577 76.4028C318.352 76.4028 313.493 83.9201 312.195 90.8308C313.675 83.667 319.949 82.0757 322.272 82.0757C323.712 82.0757 326.247 82.5606 328.495 84.2364C328.496 84.2375 328.497 84.2375 328.498 84.2393C330.949 86.0642 333.062 89.1536 333.062 94.082C333.062 98.2827 331.428 102.582 328.529 106.053C328.529 106.053 328.529 106.053 328.529 106.054C324.909 110.399 319.325 113.444 312.488 113.444C290.347 113.444 286.928 94.8381 286.39 92.8406C287.756 107.809 299.279 125.422 316.213 125.422C332.745 125.422 345.378 108.733 345.378 94.7579C345.378 85.0664 339.878 76.4028 328.577 76.4028Z" fill="#293021"/>
<path d="M328.884 70.6968C328.884 70.6968 325.355 67.3077 325.109 62.6864C324.93 59.3235 326.295 54.1777 331.619 51.3241C344.081 44.6552 354.912 54.3569 353.657 60.6423C353.657 60.6423 344.374 56.4229 335.829 61.4726C329.542 65.1851 328.884 70.6968 328.884 70.6968Z" fill="#293021"/>
</g>
<defs>
<clipPath id="clip0_109_22854">
<rect width="322.667" height="76.3443" fill="white" transform="translate(48 49.0779)"/>
</clipPath>
</defs>
</svg>
